<?xml version="1.0" encoding="UTF-8" standalone="no"?>
<!-- Created with Inkscape (http://www.inkscape.org/) -->

<svg
   width="16"
   height="16"
   viewBox="0 0 16 16"
   version="1.1"
   id="svg1"
   sodipodi:docname="PatternManager.svg"
   inkscape:version="1.3 (0e150ed6c4, 2023-07-21)"
   xmlns:inkscape="http://www.inkscape.org/namespaces/inkscape"
   xmlns:sodipodi="http://sodipodi.sourceforge.net/DTD/sodipodi-0.dtd"
   xmlns="http://www.w3.org/2000/svg"
   xmlns:svg="http://www.w3.org/2000/svg">
  <sodipodi:namedview
     id="namedview1"
     pagecolor="#ffffff"
     bordercolor="#666666"
     borderopacity="1.0"
     inkscape:showpageshadow="2"
     inkscape:pageopacity="0.0"
     inkscape:pagecheckerboard="0"
     inkscape:deskcolor="#d1d1d1"
     inkscape:document-units="mm"
     showgrid="true"
     inkscape:zoom="36.090236"
     inkscape:cx="13.064475"
     inkscape:cy="6.5807273"
     inkscape:window-width="1600"
     inkscape:window-height="829"
     inkscape:window-x="-8"
     inkscape:window-y="-8"
     inkscape:window-maximized="1"
     inkscape:current-layer="layer1">
    <inkscape:grid
       id="grid1"
       units="px"
       originx="0"
       originy="0"
       spacingx="1"
       spacingy="1"
       empcolor="#0099e5"
       empopacity="0.30196078"
       color="#0099e5"
       opacity="0.14901961"
       empspacing="1"
       dotted="false"
       gridanglex="30"
       gridanglez="30"
       visible="true"
       snapvisiblegridlinesonly="true" />
  </sodipodi:namedview>
  <defs
     id="defs1" />
  <g
     inkscape:label="Layer 1"
     inkscape:groupmode="layer"
     id="layer1">
    <path
       style="fill:none;stroke:#9e45e3;stroke-width:1.4;stroke-linecap:round;stroke-linejoin:round;stroke-dasharray:none;stroke-opacity:1"
       d="M 15,1 8,0.96979139 C 8.0687073,3.685398 9.0706681,6.1268434 11.5,7.5366645 13.837,6.0761108 15.050389,3.7165288 15,1"
       id="path1"
       sodipodi:nodetypes="cccc" />
    <path
       style="fill:none;stroke:#9e45e3;stroke-width:1.4;stroke-linecap:round;stroke-linejoin:round;stroke-opacity:1;stroke-dasharray:none"
       d="M 8,15.017912 15,15"
       id="path2" />
    <path
       style="fill:none;stroke:#9e45e3;stroke-width:1.4;stroke-linecap:round;stroke-linejoin:round;stroke-opacity:1;stroke-dasharray:none"
       d="M 8,15 C 8.1456441,11.875229 9.5543609,9.5384596 11.5,7.5366645 13.392408,9.5120722 14.851704,11.793255 15,15"
       id="path3"
       sodipodi:nodetypes="ccc" />
    <path
       sodipodi:type="spiral"
       style="fill:none;fill-rule:evenodd;stroke:#b063e8;stroke-width:1.69701;stroke-linecap:round;stroke-linejoin:round;stroke-dasharray:none;stroke-opacity:1"
       id="path22-1"
       sodipodi:cx="7.7860394"
       sodipodi:cy="8"
       sodipodi:expansion="0.88999999"
       sodipodi:revolution="2.6547806"
       sodipodi:radius="6.7266865"
       sodipodi:argument="-20.615448"
       sodipodi:t0="0.12293665"
       d="M 8.7855043,8.2925477 C 8.8890554,9.1184563 8.0491256,9.690796 7.3007298,9.6580199 6.1280497,9.6066621 5.373894,8.4336631 5.5012251,7.3312251 5.6749147,5.8274137 7.1927727,4.8859484 8.6321759,5.1092444 10.458255,5.3925258 11.585627,7.2532287 11.267305,9.0189813 10.881219,11.160624 8.6820761,12.47154 6.5977823,12.059582 4.1460633,11.575003 2.6540007,9.0420503 3.158186,6.6454075 3.7382095,3.8882682 6.6006104,2.2173015 9.3044732,2.812396 12.362992,3.485547 14.210811,6.6734038 13.526011,9.6801141 12.761581,13.036449 9.2519002,15.059246 5.9461488,14.285834 4.8815226,14.036755 3.8863979,13.518359 3.0676546,12.794284"
       transform="matrix(0.53768284,0,0,0.53277867,-1.0582365,-0.80512088)" />
    <path
       sodipodi:type="spiral"
       style="fill:none;fill-rule:evenodd;stroke:#b063e8;stroke-width:1.69701;stroke-linecap:round;stroke-linejoin:round;stroke-dasharray:none;stroke-opacity:1"
       id="path22-1-4"
       sodipodi:cx="7.7860394"
       sodipodi:cy="8"
       sodipodi:expansion="0.88999999"
       sodipodi:revolution="2.6547806"
       sodipodi:radius="6.7266865"
       sodipodi:argument="-20.615448"
       sodipodi:t0="0.12293665"
       d="M 8.7855043,8.2925477 C 8.8890554,9.1184563 8.0491256,9.690796 7.3007298,9.6580199 6.1280497,9.6066621 5.373894,8.4336631 5.5012251,7.3312251 5.6749147,5.8274137 7.1927727,4.8859484 8.6321759,5.1092444 10.458255,5.3925258 11.585627,7.2532287 11.267305,9.0189813 10.881219,11.160624 8.6820761,12.47154 6.5977823,12.059582 4.1460633,11.575003 2.6540007,9.0420503 3.158186,6.6454075 3.7382095,3.8882682 6.6006104,2.2173015 9.3044732,2.812396 12.362992,3.485547 14.210811,6.6734038 13.526011,9.6801141 12.761581,13.036449 9.2519002,15.059246 5.9461488,14.285834 4.8815226,14.036755 3.8863979,13.518359 3.0676546,12.794284"
       transform="matrix(0.53768284,0,0,0.53277867,-1.0582365,7.1948791)" />
  </g>
</svg>
