<?xml version="1.0" encoding="UTF-8" standalone="no"?>
<!-- Created with Inkscape (http://www.inkscape.org/) -->

<svg
   width="713.30542"
   height="814.16357"
   viewBox="0 0 188.72872 215.41411"
   version="1.1"
   id="svg1"
   inkscape:version="1.3 (0e150ed6c4, 2023-07-21)"
   sodipodi:docname="PerfBulletsLogo.svg"
   inkscape:export-filename="PerfBulletsLogo.png"
   inkscape:export-xdpi="96"
   inkscape:export-ydpi="96"
   xmlns:inkscape="http://www.inkscape.org/namespaces/inkscape"
   xmlns:sodipodi="http://sodipodi.sourceforge.net/DTD/sodipodi-0.dtd"
   xmlns="http://www.w3.org/2000/svg"
   xmlns:svg="http://www.w3.org/2000/svg">
  <sodipodi:namedview
     id="namedview1"
     pagecolor="#ffffff"
     bordercolor="#666666"
     borderopacity="1.0"
     inkscape:showpageshadow="2"
     inkscape:pageopacity="0.0"
     inkscape:pagecheckerboard="0"
     inkscape:deskcolor="#d1d1d1"
     inkscape:document-units="px"
     inkscape:zoom="0.56390993"
     inkscape:cx="146.29996"
     inkscape:cy="273.97992"
     inkscape:window-width="1600"
     inkscape:window-height="829"
     inkscape:window-x="-8"
     inkscape:window-y="-8"
     inkscape:window-maximized="1"
     inkscape:current-layer="g5"
     inkscape:export-bgcolor="#ffffff00" />
  <defs
     id="defs1" />
  <g
     inkscape:label="Layer 1"
     inkscape:groupmode="layer"
     id="layer1"
     transform="translate(-2.3414748,-33.787033)">
    <g
       stroke-width="0.9375"
       id="g5"
       transform="matrix(0.15832629,0,0,0.15832629,76.136081,123.78327)">
      <path
         d="m 133.04062,7.4975 c -14.39812,3.200906 -28.64156,7.656188 -41.995308,14.3775 0.305391,11.790937 1.067625,23.08875 2.612907,34.564687 -5.185875,3.3225 -10.635938,6.174094 -15.48,10.063125 -4.9215,3.786188 -9.94875,7.409719 -14.404688,11.837813 C 54.87075,72.452094 45.449156,66.918125 35.742281,62.032812 25.278844,73.294062 15.494156,85.44875 7.5019687,99.049063 13.514906,108.77656 19.792594,117.89375 26.570719,126.54594 h 0.188597 V 210.02 c 0.15269,9.4e-4 0.306487,0.008 0.457762,0.0219 l 51.174375,4.93284 c 2.680594,0.25873 4.781063,2.41688 4.967625,5.10319 l 1.578375,22.59 44.639067,3.186 3.07434,-20.85 c 0.39868,-2.70319 2.71856,-4.70578 5.45287,-4.70578 h 53.99063 c 2.73291,0 5.05237,2.00259 5.451,4.70578 l 3.07434,20.85 44.64094,-3.186 1.5765,-22.59 c 0.18804,-2.68622 2.28703,-4.84303 4.96763,-5.10319 l 51.15375,-4.93284 c 0.15127,-0.0142 0.30324,-0.0204 0.45592,-0.0219 v -6.66141 l 0.0219,-0.007 v -76.80562 h 0.18859 c 6.77925,-8.65256 13.05282,-17.77031 19.06875,-27.496876 -7.98946,-13.60125 -17.77875,-25.755938 -28.24218,-37.01625 -9.70407,4.88475 -19.13063,10.418437 -28.03313,16.307812 -4.4549,-4.428094 -9.4725,-8.051531 -14.40093,-11.837812 -4.84238,-3.889407 -10.30032,-6.741 -15.47626,-10.063125 1.54107,-11.475938 2.30429,-22.77375 2.61113,-34.564688 C 225.79766,15.153219 211.55516,10.697656 197.14954,7.4970312 191.39816,17.163594 186.1386,27.629844 181.55797,37.863594 176.1261,36.955916 170.66891,36.619437 165.20516,36.554375 v -0.0073 c -0.0382,0 -0.0737,0.0073 -0.1062,0.0073 -0.0338,0 -0.0704,-0.0073 -0.10437,-0.0073 v 0.0073 c -5.47434,0.065 -10.9275,0.401531 -16.36031,1.309219 -4.57791,-10.232813 -9.83344,-20.7 -15.59344,-30.3665628 z M 26.671875,221.06 c 0.02125,4.9455 0.08423,10.36313 0.08423,11.44219 0,48.59812 61.65,71.95687 138.243745,72.22594 h 0.1886 c 76.59469,-0.26864 138.225,-23.62782 138.225,-72.22594 0,-1.09856 0.0671,-6.49388 0.0897,-11.44219 l -45.9975,4.43663 -1.58569,22.71093 c -0.19087,2.73713 -2.36785,4.91578 -5.10497,5.11228 l -54.51094,3.88913 c -0.1329,0.01 -0.26585,0.0146 -0.39733,0.0146 -2.70891,0 -5.04544,-1.98928 -5.44556,-4.70943 l -3.12563,-21.19782 h -44.47781 l -3.12562,21.19782 c -0.41991,2.85309 -2.97,4.90547 -5.84288,4.69481 l -54.510932,-3.88913 c -2.737125,-0.19651 -4.914094,-2.37515 -5.104969,-5.11228 L 72.689428,225.49663 26.673178,221.06 Z"
         fill="#478cbf"
         id="path3"
         style="fill:#b063e8;fill-opacity:1" />
      <path
         d="m 92.552813,129.60687 c -17.025001,0 -30.835313,13.79626 -30.835313,30.82407 0,17.03906 13.809375,30.84187 30.835312,30.84187 17.033438,0 30.839998,-13.80281 30.839998,-30.84187 0,-17.02782 -13.80656,-30.82407 -30.839997,-30.82407 z m 145.087497,0 c -17.03625,0 -30.84187,13.79626 -30.84187,30.82407 0,17.03906 13.80562,30.84187 30.84187,30.84187 17.02406,0 30.83156,-13.80281 30.83156,-30.84187 0,-17.02782 -13.8075,-30.82407 -30.83156,-30.82407 z M 165.09,147.64438 c -5.48278,0 -9.92625,4.04493 -9.92625,9.02156 v 28.39031 c 0,4.98084 4.44337,9.02156 9.92625,9.02156 5.48287,0 9.9375,-4.04072 9.9375,-9.02156 v -28.39031 c 0,-4.97663 -4.45434,-9.02156 -9.9375,-9.02156 z"
         fill="#ffffff"
         id="path4" />
      <path
         d="m 95.503125,141.79437 c -11.305312,0 -20.469375,9.16913 -20.469375,20.47125 0,11.30213 9.164438,20.46188 20.469375,20.46188 11.310935,0 20.471255,-9.15994 20.471255,-20.46188 0,-11.30193 -9.16069,-20.47125 -20.471255,-20.47125 z m 139.181255,0 c -11.30251,0 -20.46001,9.16913 -20.46001,20.47125 0,11.30213 9.15816,20.46188 20.46001,20.46188 11.31375,0 20.46937,-9.15994 20.46937,-20.46188 0,-11.30193 -9.156,-20.47125 -20.46937,-20.47125 z"
         fill="#414042"
         id="path5" />
      <path
         style="fill:none;stroke:#9e45e3;stroke-width:14.1653px;stroke-linecap:round;stroke-linejoin:round;stroke-opacity:1"
         d="m 634.36191,111.66928 v 66.49949"
         id="path8-6-0"
         sodipodi:nodetypes="cc" />
      <path
         style="fill:none;stroke:#9e45e3;stroke-width:14.1653px;stroke-linecap:round;stroke-linejoin:round;stroke-opacity:1"
         d="m 634.36191,178.16877 c 48.27865,13.1058 84.48757,-33.24977 84.48757,-33.24977 0,0 -36.20892,-49.874594 -84.48757,-33.24972"
         id="path9-2-1" />
      <path
         style="fill:none;stroke:#9e45e3;stroke-width:14.1653px;stroke-linecap:butt;stroke-linejoin:miter;stroke-opacity:1"
         d="m 658.50125,111.66928 v 66.49949"
         id="path10-0-0" />
      <path
         style="fill:none;stroke:#9e45e3;stroke-width:14.1653px;stroke-linecap:round;stroke-linejoin:round;stroke-opacity:1"
         d="m 525.08736,551.45285 -49.98263,43.86251"
         id="path8-6-0-92"
         sodipodi:nodetypes="cc" />
      <path
         style="fill:none;stroke:#9e45e3;stroke-width:14.1653px;stroke-linecap:round;stroke-linejoin:round;stroke-opacity:1"
         d="m 475.10473,595.31536 c 21.99356,44.93188 80.71863,41.57162 80.71863,41.57162 0,0 13.60385,-60.11236 -30.736,-85.43413"
         id="path9-2-1-4" />
      <path
         style="fill:none;stroke:#9e45e3;stroke-width:14.1653px;stroke-linecap:butt;stroke-linejoin:miter;stroke-opacity:1"
         d="m 541.00947,569.59655 -49.98263,43.86252"
         id="path10-0-0-9" />
      <path
         style="fill:none;stroke:#9e45e3;stroke-width:14.1653px;stroke-linecap:round;stroke-linejoin:round;stroke-opacity:1"
         d="m 346.56191,671.21383 -61.90579,24.28698"
         id="path8-6-0-4"
         sodipodi:nodetypes="cc" />
      <path
         style="fill:none;stroke:#9e45e3;stroke-width:14.1653px;stroke-linecap:round;stroke-linejoin:round;stroke-opacity:1"
         d="m 284.65612,695.50081 c 5.43189,49.73011 61.80951,66.50775 61.80951,66.50775 0,0 33.20507,-51.92287 0.0963,-90.79473"
         id="path9-2-1-2" />
      <path
         style="fill:none;stroke:#9e45e3;stroke-width:14.1653px;stroke-linecap:butt;stroke-linejoin:miter;stroke-opacity:1"
         d="M 355.37808,693.68564 293.4723,717.97263"
         id="path10-0-0-7" />
      <path
         style="fill:none;stroke:#9e45e3;stroke-width:14.1653px;stroke-linecap:round;stroke-linejoin:round;stroke-opacity:1"
         d="M 125.72822,709.62963 60.763312,695.42595"
         id="path8-6-0-1"
         sodipodi:nodetypes="cc" />
      <path
         style="fill:none;stroke:#9e45e3;stroke-width:14.1653px;stroke-linecap:round;stroke-linejoin:round;stroke-opacity:1"
         d="M 60.763312,695.42595 C 37.64807,739.79119 75.2,785.06565 75.2,785.06565 c 0,0 56.45756,-24.72056 50.52822,-75.43602"
         id="path9-2-1-0" />
      <path
         style="fill:none;stroke:#9e45e3;stroke-width:14.1653px;stroke-linecap:butt;stroke-linejoin:miter;stroke-opacity:1"
         d="M 120.57227,733.21192 55.607367,719.00822"
         id="path10-0-0-61" />
      <path
         style="fill:none;stroke:#9e45e3;stroke-width:14.1653px;stroke-linecap:round;stroke-linejoin:round;stroke-opacity:1"
         d="M -89.114965,661.27317 -143.70826,623.30272"
         id="path8-6-0-5"
         sodipodi:nodetypes="cc" />
      <path
         style="fill:none;stroke:#9e45e3;stroke-width:14.1653px;stroke-linecap:round;stroke-linejoin:round;stroke-opacity:1"
         d="m -143.70826,623.30272 c -38.32587,32.15148 -20.94477,88.34598 -20.94477,88.34598 0,0 61.61982,-1.24818 75.538065,-50.37553"
         id="path9-2-1-74" />
      <path
         style="fill:none;stroke:#9e45e3;stroke-width:14.1653px;stroke-linecap:butt;stroke-linejoin:miter;stroke-opacity:1"
         d="M -102.89825,681.09055 -157.49156,643.1201"
         id="path10-0-0-8" />
      <path
         style="fill:none;stroke:#9e45e3;stroke-width:14.1653px;stroke-linecap:round;stroke-linejoin:round;stroke-opacity:1"
         d="m -282.75977,521.29654 -32.8038,-57.84544"
         id="path8-6-0-44"
         sodipodi:nodetypes="cc" />
      <path
         style="fill:none;stroke:#9e45e3;stroke-width:14.1653px;stroke-linecap:round;stroke-linejoin:round;stroke-opacity:1"
         d="m -315.56357,463.4511 c -48.46081,12.41531 -57.09068,70.59994 -57.09068,70.59994 0,0 56.09963,25.52241 89.89448,-12.7545"
         id="path9-2-1-3" />
      <path
         style="fill:none;stroke:#9e45e3;stroke-width:14.1653px;stroke-linecap:butt;stroke-linejoin:miter;stroke-opacity:1"
         d="m -303.75768,533.20433 -32.8038,-57.84544"
         id="path10-0-0-48" />
      <path
         style="fill:none;stroke:#9e45e3;stroke-width:14.1653px;stroke-linecap:round;stroke-linejoin:round;stroke-opacity:1"
         d="m 634.32843,362.3224 -33.26278,57.58273"
         id="path8-6-0-9"
         sodipodi:nodetypes="cc" />
      <path
         style="fill:none;stroke:#9e45e3;stroke-width:14.1653px;stroke-linecap:round;stroke-linejoin:round;stroke-opacity:1"
         d="m 601.06565,419.90513 c 35.2496,35.49726 89.79022,13.46896 89.79022,13.46896 0,0 -6.40667,-61.29858 -56.52744,-71.05169"
         id="path9-2-1-1" />
      <path
         style="fill:none;stroke:#9e45e3;stroke-width:14.1653px;stroke-linecap:butt;stroke-linejoin:miter;stroke-opacity:1"
         d="M 655.23098,374.3968 621.9682,431.97953"
         id="path10-0-0-2" />
      <path
         style="fill:none;stroke:#9e45e3;stroke-width:14.1653px;stroke-linecap:round;stroke-linejoin:round;stroke-opacity:1"
         d="m -369.06434,296.60067 -4.55198,-66.34351"
         id="path8-6-0-923"
         sodipodi:nodetypes="cc" />
      <path
         style="fill:none;stroke:#9e45e3;stroke-width:14.1653px;stroke-linecap:round;stroke-linejoin:round;stroke-opacity:1"
         d="m -373.61632,230.25716 c -49.06252,-9.77034 -82.01341,38.95506 -82.01341,38.95506 0,0 39.53797,47.27907 86.56539,27.38845"
         id="path9-2-1-8" />
      <path
         style="fill:none;stroke:#9e45e3;stroke-width:14.1653px;stroke-linecap:butt;stroke-linejoin:miter;stroke-opacity:1"
         d="m -393.14706,298.25305 -4.55198,-66.34353"
         id="path10-0-0-81" />
      <path
         style="fill:none;stroke:#9e45e3;stroke-width:14.1653px;stroke-linecap:round;stroke-linejoin:round;stroke-opacity:1"
         d="m -387.03725,10.30172 18.41945,-63.897621"
         id="path8-6-0-8"
         sodipodi:nodetypes="cc" />
      <path
         style="fill:none;stroke:#9e45e3;stroke-width:14.1653px;stroke-linecap:round;stroke-linejoin:round;stroke-opacity:1"
         d="m -368.6178,-53.595901 c -42.75956,-25.965551 -90.39162,8.546922 -90.39162,8.546922 0,0 20.97761,57.952575 71.97217,55.350699"
         id="path9-2-1-80" />
      <path
         style="fill:none;stroke:#9e45e3;stroke-width:14.1653px;stroke-linecap:butt;stroke-linejoin:miter;stroke-opacity:1"
         d="m -410.23211,3.615455 18.41945,-63.897625"
         id="path10-0-0-82" />
      <path
         style="fill:none;stroke:#9e45e3;stroke-width:14.1653px;stroke-linecap:round;stroke-linejoin:round;stroke-opacity:1"
         d="m -309.43699,-229.762 43.32884,-50.44597"
         id="path8-6-0-85"
         sodipodi:nodetypes="cc" />
      <path
         style="fill:none;stroke:#9e45e3;stroke-width:14.1653px;stroke-linecap:round;stroke-linejoin:round;stroke-opacity:1"
         d="m -266.10815,-280.20797 c -28.08446,-41.3987 -85.756,-29.82628 -85.756,-29.82628 0,0 -5.02884,61.42697 42.42716,80.27225"
         id="path9-2-1-31" />
      <path
         style="fill:none;stroke:#9e45e3;stroke-width:14.1653px;stroke-linecap:butt;stroke-linejoin:miter;stroke-opacity:1"
         d="m -327.74889,-245.49041 43.32885,-50.44595"
         id="path10-0-0-45" />
      <path
         style="fill:none;stroke:#9e45e3;stroke-width:14.1653px;stroke-linecap:round;stroke-linejoin:round;stroke-opacity:1"
         d="m -90.724942,-397.25607 56.781357,-34.613"
         id="path8-6-0-0847"
         sodipodi:nodetypes="cc" />
      <path
         style="fill:none;stroke:#9e45e3;stroke-width:14.1653px;stroke-linecap:round;stroke-linejoin:round;stroke-opacity:1"
         d="m -33.943585,-431.86907 c -13.938491,-48.04485 -72.366475,-54.83418 -72.366475,-54.83418 0,0 -23.73926,56.87714 15.585118,89.44718"
         id="path9-2-1-535" />
      <path
         style="fill:none;stroke:#9e45e3;stroke-width:14.1653px;stroke-linecap:butt;stroke-linejoin:miter;stroke-opacity:1"
         d="m -103.28947,-417.86772 56.781359,-34.613"
         id="path10-0-0-198" />
      <path
         style="fill:none;stroke:#9e45e3;stroke-width:14.1653px;stroke-linecap:round;stroke-linejoin:round;stroke-opacity:1"
         d="m 170.56495,-477.51124 66.48707,1.28583"
         id="path8-6-0-68"
         sodipodi:nodetypes="cc" />
      <path
         style="fill:none;stroke:#9e45e3;stroke-width:14.1653px;stroke-linecap:round;stroke-linejoin:round;stroke-opacity:1"
         d="m 237.05202,-476.22541 c 14.03686,-48.01621 -31.60991,-85.11469 -31.60991,-85.11469 0,0 -50.56541,35.23777 -34.87716,83.82886"
         id="path9-2-1-03" />
      <path
         style="fill:none;stroke:#9e45e3;stroke-width:14.1653px;stroke-linecap:butt;stroke-linejoin:miter;stroke-opacity:1"
         d="m 171.03171,-501.64607 66.48707,1.28583"
         id="path10-0-0-914" />
      <path
         style="fill:none;stroke:#9e45e3;stroke-width:14.1653px;stroke-linecap:round;stroke-linejoin:round;stroke-opacity:1"
         d="M 569.126,-60.28153 595.42016,0.79874553"
         id="path8-6-0-084"
         sodipodi:nodetypes="cc" />
      <path
         style="fill:none;stroke:#9e45e3;stroke-width:14.1653px;stroke-linecap:round;stroke-linejoin:round;stroke-opacity:1"
         d="m 595.42016,0.79874553 c 49.52638,-7.05178903 64.45538,-63.94686453 64.45538,-63.94686453 0,0 -52.97877,-31.493039 -90.74954,2.866589"
         id="path9-2-1-56" />
      <path
         style="fill:none;stroke:#9e45e3;stroke-width:14.1653px;stroke-linecap:butt;stroke-linejoin:miter;stroke-opacity:1"
         d="m 591.29816,-69.826316 26.29416,61.0802746"
         id="path10-0-0-5" />
      <path
         style="fill:none;stroke:#9e45e3;stroke-width:14.1653px;stroke-linecap:round;stroke-linejoin:round;stroke-opacity:1"
         d="m 329.87587,-270.0437 59.95095,28.77614"
         id="path8-6-0-2"
         sodipodi:nodetypes="cc" />
      <path
         style="fill:none;stroke:#9e45e3;stroke-width:14.1653px;stroke-linecap:round;stroke-linejoin:round;stroke-opacity:1"
         d="m 389.82682,-241.26756 c 32.7067,-37.8532 6.58456,-90.55572 6.58456,-90.55572 0,0 -60.63177,11.06114 -66.53551,61.77958"
         id="path9-2-1-749" />
      <path
         style="fill:none;stroke:#9e45e3;stroke-width:14.1653px;stroke-linecap:butt;stroke-linejoin:miter;stroke-opacity:1"
         d="m 340.32162,-291.80591 59.95094,28.77613"
         id="path10-0-0-74" />
      <path
         style="fill:none;stroke:#9e45e3;stroke-width:14.1653px;stroke-linecap:round;stroke-linejoin:round;stroke-opacity:1"
         d="m 464.98131,-186.85178 43.3247,50.44948"
         id="path8-6-0-05-9"
         sodipodi:nodetypes="cc" />
      <path
         style="fill:none;stroke:#9e45e3;stroke-width:14.1653px;stroke-linecap:round;stroke-linejoin:round;stroke-opacity:1"
         d="m 508.30601,-136.4023 c 45.16484,-21.5111 42.4337,-80.26878 42.4337,-80.26878 0,0 -59.96324,-14.24684 -85.7584,29.8193"
         id="path9-2-1-83-9" />
      <path
         style="fill:none;stroke:#9e45e3;stroke-width:14.1653px;stroke-linecap:butt;stroke-linejoin:miter;stroke-opacity:1"
         d="m 483.29449,-202.57869 43.32472,50.4495"
         id="path10-0-0-77-4" />
      <path
         style="fill:none;stroke:#9e45e3;stroke-width:14.1653px;stroke-linecap:round;stroke-linejoin:round;stroke-opacity:1"
         d="m 165.53468,-287.33752 66.4909,1.06933"
         id="path8-6-0-80"
         sodipodi:nodetypes="cc" />
      <path
         style="fill:none;stroke:#9e45e3;stroke-width:14.1653px;stroke-linecap:round;stroke-linejoin:round;stroke-opacity:1"
         d="m 232.02558,-286.26819 c 13.88046,-48.06164 -31.88687,-85.01131 -31.88687,-85.01131 0,0 -50.4504,35.40222 -34.60403,83.94198"
         id="path9-2-1-6" />
      <path
         style="fill:none;stroke:#9e45e3;stroke-width:14.1653px;stroke-linecap:butt;stroke-linejoin:miter;stroke-opacity:1"
         d="m 165.92285,-311.47374 66.49091,1.06933"
         id="path10-0-0-86" />
      <path
         style="fill:none;stroke:#9e45e3;stroke-width:14.1653px;stroke-linecap:round;stroke-linejoin:round;stroke-opacity:1"
         d="m 7.7754238,-223.71325 59.2563522,-30.1806"
         id="path8-6-0-23"
         sodipodi:nodetypes="cc"
         inkscape:transform-center-x="5.1527115"
         inkscape:transform-center-y="-4.0865222" />
      <path
         style="fill:none;stroke:#9e45e3;stroke-width:14.1653px;stroke-linecap:round;stroke-linejoin:round;stroke-opacity:1"
         d="M 67.031776,-253.89385 C 56.798973,-302.862 -0.94083966,-314.0887 -0.94083966,-314.0887 c 0,0 -28.00892734,54.90047 8.71626346,90.37545"
         id="path9-2-1-64"
         inkscape:transform-center-x="6.6516464"
         inkscape:transform-center-y="-8.8517363" />
      <path
         style="fill:none;stroke:#9e45e3;stroke-width:14.1653px;stroke-linecap:butt;stroke-linejoin:miter;stroke-opacity:1"
         d="M -3.1801399,-245.22333 56.076213,-275.40392"
         id="path10-0-0-78"
         inkscape:transform-center-x="6.8872653"
         inkscape:transform-center-y="-7.4921327" />
      <path
         style="fill:none;stroke:#9e45e3;stroke-width:14.1653px;stroke-linecap:round;stroke-linejoin:round;stroke-opacity:1"
         d="m -185.95158,39.521619 23.12118,-62.35058"
         id="path8-6-0-50"
         sodipodi:nodetypes="cc" />
      <path
         style="fill:none;stroke:#9e45e3;stroke-width:14.1653px;stroke-linecap:round;stroke-linejoin:round;stroke-opacity:1"
         d="m -162.8304,-22.828961 c -40.70978,-29.074106 -90.77696,1.799877 -90.77696,1.799877 0,0 16.60895,59.352365 67.65578,60.550703"
         id="path9-2-1-062" />
      <path
         style="fill:none;stroke:#9e45e3;stroke-width:14.1653px;stroke-linecap:butt;stroke-linejoin:miter;stroke-opacity:1"
         d="m -208.58486,31.128624 23.12118,-62.350579"
         id="path10-0-0-40" />
      <path
         style="fill:none;stroke:#9e45e3;stroke-width:14.1653px;stroke-linecap:round;stroke-linejoin:round;stroke-opacity:1"
         d="m -119.87539,-115.63682 41.45974,-51.99301"
         id="path8-6-0-05-8"
         sodipodi:nodetypes="cc" />
      <path
         style="fill:none;stroke:#9e45e3;stroke-width:14.1653px;stroke-linecap:round;stroke-linejoin:round;stroke-opacity:1"
         d="m -78.41565,-167.62983 c -29.57601,-40.34663 -86.78698,-26.67806 -86.78698,-26.67806 0,0 -2.78464,61.56953 45.32724,78.67107"
         id="path9-2-1-83-1" />
      <path
         style="fill:none;stroke:#9e45e3;stroke-width:14.1653px;stroke-linecap:butt;stroke-linejoin:miter;stroke-opacity:1"
         d="m -138.74889,-130.68672 41.45975,-51.99302"
         id="path10-0-0-77-2" />
      <path
         style="fill:none;stroke:#9e45e3;stroke-width:14.1653px;stroke-linecap:round;stroke-linejoin:round;stroke-opacity:1"
         d="m -167.26495,315.16716 -18.98504,-63.73187"
         id="path8-6-0-57"
         sodipodi:nodetypes="cc" />
      <path
         style="fill:none;stroke:#9e45e3;stroke-width:14.1653px;stroke-linecap:round;stroke-linejoin:round;stroke-opacity:1"
         d="m -186.24999,251.43529 c -50.01094,1.2228 -71.47877,55.98644 -71.47877,55.98644 0,0 48.94073,37.46153 90.46381,7.74543"
         id="path9-2-1-53" />
      <path
         style="fill:none;stroke:#9e45e3;stroke-width:14.1653px;stroke-linecap:butt;stroke-linejoin:miter;stroke-opacity:1"
         d="m -190.39964,322.05873 -18.98503,-63.73187"
         id="path10-0-0-0" />
      <path
         style="fill:none;stroke:#9e45e3;stroke-width:14.1653px;stroke-linecap:round;stroke-linejoin:round;stroke-opacity:1"
         d="M 59.787542,487.22816 2.1328519,454.09028"
         id="path8-6-0-76"
         sodipodi:nodetypes="cc" />
      <path
         style="fill:none;stroke:#9e45e3;stroke-width:14.1653px;stroke-linecap:round;stroke-linejoin:round;stroke-opacity:1"
         d="m 2.1328519,454.09028 c -35.4207759,35.32646 -13.2743019,89.8192 -13.2743019,89.8192 0,0 61.284548,-6.53954 70.928992,-56.68132"
         id="path9-2-1-67" />
      <path
         style="fill:none;stroke:#9e45e3;stroke-width:14.1653px;stroke-linecap:butt;stroke-linejoin:miter;stroke-opacity:1"
         d="M 47.75848,508.15683 -9.8962148,475.01894"
         id="path10-0-0-05" />
      <path
         style="fill:none;stroke:#9e45e3;stroke-width:14.1653px;stroke-linecap:round;stroke-linejoin:round;stroke-opacity:1"
         d="M -68.474592,422.30591 -111.56228,371.65385"
         id="path8-6-0-05-7"
         sodipodi:nodetypes="cc" />
      <path
         style="fill:none;stroke:#9e45e3;stroke-width:14.1653px;stroke-linecap:round;stroke-linejoin:round;stroke-opacity:1"
         d="m -111.56228,371.65385 c -45.26521,21.2991 -42.80958,80.06894 -42.80958,80.06894 0,0 59.895764,14.52784 85.897268,-29.41688"
         id="path9-2-1-83-0" />
      <path
         style="fill:none;stroke:#9e45e3;stroke-width:14.1653px;stroke-linecap:butt;stroke-linejoin:miter;stroke-opacity:1"
         d="M -86.861321,437.94678 -129.94902,387.2947"
         id="path10-0-0-77-5" />
      <path
         style="fill:none;stroke:#9e45e3;stroke-width:14.1653px;stroke-linecap:round;stroke-linejoin:round;stroke-opacity:1"
         d="m 204.97133,504.58008 -66.41552,-3.34093"
         id="path8-6-0-77"
         sodipodi:nodetypes="cc" />
      <path
         style="fill:none;stroke:#9e45e3;stroke-width:14.1653px;stroke-linecap:round;stroke-linejoin:round;stroke-opacity:1"
         d="m 138.55581,501.23915 c -15.51477,47.55924 28.96312,86.05133 28.96312,86.05133 0,0 51.63075,-33.65749 37.4524,-82.7104"
         id="path9-2-1-68" />
      <path
         style="fill:none;stroke:#9e45e3;stroke-width:14.1653px;stroke-linecap:butt;stroke-linejoin:miter;stroke-opacity:1"
         d="m 203.75856,528.68893 -66.41552,-3.34094"
         id="path10-0-0-1" />
      <path
         style="fill:none;stroke:#9e45e3;stroke-width:14.1653px;stroke-linecap:round;stroke-linejoin:round;stroke-opacity:1"
         d="m 328.84491,466.86032 -59.31069,30.07366"
         id="path8-6-0-081"
         sodipodi:nodetypes="cc" />
      <path
         style="fill:none;stroke:#9e45e3;stroke-width:14.1653px;stroke-linecap:round;stroke-linejoin:round;stroke-opacity:1"
         d="m 269.53422,496.93398 c 10.14446,48.98653 67.86393,60.31736 67.86393,60.31736 0,0 28.10792,-54.84985 -8.55324,-90.39102"
         id="path9-2-1-40" />
      <path
         style="fill:none;stroke:#9e45e3;stroke-width:14.1653px;stroke-linecap:butt;stroke-linejoin:miter;stroke-opacity:1"
         d="m 339.76166,488.39012 -59.31069,30.07367"
         id="path10-0-0-09" />
      <path
         style="fill:none;stroke:#9e45e3;stroke-width:14.1653px;stroke-linecap:round;stroke-linejoin:round;stroke-opacity:1"
         d="m 423.13995,383.39183 -45.21888,48.75896"
         id="path8-6-0-86"
         sodipodi:nodetypes="cc" />
      <path
         style="fill:none;stroke:#9e45e3;stroke-width:14.1653px;stroke-linecap:round;stroke-linejoin:round;stroke-opacity:1"
         d="m 377.92107,432.15079 c 26.48723,42.43839 84.55768,33.07106 84.55768,33.07106 0,0 7.36493,-61.19085 -39.3388,-81.83002"
         id="path9-2-1-79" />
      <path
         style="fill:none;stroke:#9e45e3;stroke-width:14.1653px;stroke-linecap:butt;stroke-linejoin:miter;stroke-opacity:1"
         d="m 440.83947,399.8063 -45.21888,48.75896"
         id="path10-0-0-3" />
      <path
         style="fill:none;stroke:#9e45e3;stroke-width:14.1653px;stroke-linecap:round;stroke-linejoin:round;stroke-opacity:1"
         d="m 457.59008,275.4764 -17.47073,64.16353"
         id="path8-6-0-70"
         sodipodi:nodetypes="cc" />
      <path
         style="fill:none;stroke:#9e45e3;stroke-width:14.1653px;stroke-linecap:round;stroke-linejoin:round;stroke-opacity:1"
         d="m 440.11935,339.63993 c 43.13959,25.32916 90.25508,-9.88525 90.25508,-9.88525 0,0 -21.83394,-57.6354 -72.78435,-54.27828"
         id="path9-2-1-88" />
      <path
         style="fill:none;stroke:#9e45e3;stroke-width:14.1653px;stroke-linecap:butt;stroke-linejoin:miter;stroke-opacity:1"
         d="m 480.88146,281.81829 -17.47072,64.16352"
         id="path10-0-0-17" />
      <path
         style="fill:none;stroke:#9e45e3;stroke-width:14.1653px;stroke-linecap:round;stroke-linejoin:round;stroke-opacity:1"
         d="m 468.43924,159.37979 -4.46443,66.34946"
         id="path8-6-0-11"
         sodipodi:nodetypes="cc" />
      <path
         style="fill:none;stroke:#9e45e3;stroke-width:14.1653px;stroke-linecap:round;stroke-linejoin:round;stroke-opacity:1"
         d="m 463.97481,225.72925 c 47.28988,16.31741 86.52917,-27.5027 86.52917,-27.5027 0,0 -32.7789,-52.19294 -82.06474,-38.84676"
         id="path9-2-1-81" />
      <path
         style="fill:none;stroke:#9e45e3;stroke-width:14.1653px;stroke-linecap:butt;stroke-linejoin:miter;stroke-opacity:1"
         d="m 492.52412,161.00038 -4.46444,66.34946"
         id="path10-0-0-12" />
      <path
         style="fill:none;stroke:#9e45e3;stroke-width:14.1653px;stroke-linecap:round;stroke-linejoin:round;stroke-opacity:1"
         d="m 436.33968,50.43821 24.79162,61.70542"
         id="path8-6-0-06"
         sodipodi:nodetypes="cc" />
      <path
         style="fill:none;stroke:#9e45e3;stroke-width:14.1653px;stroke-linecap:round;stroke-linejoin:round;stroke-opacity:1"
         d="m 461.1313,112.14363 c 49.68411,-5.83775 66.00087,-62.350472 66.00087,-62.350472 0,0 -52.19225,-32.780022 -90.79249,0.645052"
         id="path9-2-1-30" />
      <path
         style="fill:none;stroke:#9e45e3;stroke-width:14.1653px;stroke-linecap:butt;stroke-linejoin:miter;stroke-opacity:1"
         d="m 458.73876,41.438843 24.79162,61.705417"
         id="path10-0-0-88" />
      <path
         style="fill:none;stroke:#9e45e3;stroke-width:14.1653px;stroke-linecap:round;stroke-linejoin:round;stroke-opacity:1"
         d="m 368.94037,-40.608039 42.05825,51.510066"
         id="path8-6-0-083"
         sodipodi:nodetypes="cc" />
      <path
         style="fill:none;stroke:#9e45e3;stroke-width:14.1653px;stroke-linecap:round;stroke-linejoin:round;stroke-opacity:1"
         d="m 410.99862,10.902027 c 45.68521,-20.3826361 44.41437,-79.190031 44.41437,-79.190031 0,0 -59.59086,-15.731847 -86.47262,27.679965"
         id="path9-2-1-77" />
      <path
         style="fill:none;stroke:#9e45e3;stroke-width:14.1653px;stroke-linecap:butt;stroke-linejoin:miter;stroke-opacity:1"
         d="M 387.63854,-55.875199 429.6968,-4.3651336"
         id="path10-0-0-79" />
      <path
         style="fill:none;stroke:#9e45e3;stroke-width:14.1653px;stroke-linecap:round;stroke-linejoin:round;stroke-opacity:1"
         d="m 263.9112,-81.24152 59.24538,30.202132"
         id="path8-6-0-36"
         sodipodi:nodetypes="cc" />
      <path
         style="fill:none;stroke:#9e45e3;stroke-width:14.1653px;stroke-linecap:round;stroke-linejoin:round;stroke-opacity:1"
         d="m 323.15658,-51.039388 c 33.60291,-37.059884 8.74908,-90.372272 8.74908,-90.372272 0,0 -60.87905,9.60747 -67.99446,60.17014"
         id="path9-2-1-319" />
      <path
         style="fill:none;stroke:#9e45e3;stroke-width:14.1653px;stroke-linecap:round;stroke-linejoin:round;stroke-opacity:1"
         d="m 153.77183,-80.396037 66.49427,-0.834117"
         id="path8-6-0-79"
         sodipodi:nodetypes="cc" />
      <path
         style="fill:none;stroke:#9e45e3;stroke-width:14.1653px;stroke-linecap:round;stroke-linejoin:round;stroke-opacity:1"
         d="m 220.2661,-81.230154 c 12.4992,-48.439246 -34.3069,-84.063866 -34.3069,-84.063866 0,0 -49.4165,36.83166 -32.18737,84.897983"
         id="path9-2-1-306" />
      <path
         style="fill:none;stroke:#9e45e3;stroke-width:14.1653px;stroke-linecap:butt;stroke-linejoin:miter;stroke-opacity:1"
         d="m 153.46904,-104.53349 66.49427,-0.83412"
         id="path10-0-0-91" />
      <path
         style="fill:none;stroke:#9e45e3;stroke-width:14.1653px;stroke-linecap:round;stroke-linejoin:round;stroke-opacity:1"
         d="M 58.144677,-36.28585 116.14621,-68.812887"
         id="path8-6-0-07"
         sodipodi:nodetypes="cc" />
      <path
         style="fill:none;stroke:#9e45e3;stroke-width:14.1653px;stroke-linecap:round;stroke-linejoin:round;stroke-opacity:1"
         d="m 116.14621,-68.812887 c -12.18365,-48.519583 -70.326387,-57.427353 -70.326387,-57.427353 0,0 -25.790157,55.977041 12.324854,89.95439"
         id="path9-2-1-772" />
      <path
         style="fill:none;stroke:#9e45e3;stroke-width:14.1653px;stroke-linecap:butt;stroke-linejoin:miter;stroke-opacity:1"
         d="M 46.337351,-57.340417 104.33886,-89.867451"
         id="path10-0-0-28" />
      <path
         style="fill:none;stroke:#9e45e3;stroke-width:14.1653px;stroke-linecap:butt;stroke-linejoin:miter;stroke-opacity:1"
         d="m 274.87459,-102.7476 59.24538,30.202121"
         id="path10-0-0-50" />
      <path
         style="fill:none;stroke:#9e45e3;stroke-width:14.1653px;stroke-linecap:round;stroke-linejoin:round;stroke-opacity:1"
         d="M -11.698617,43.513586 28.551181,-9.4216268"
         id="path8-6-0-55"
         sodipodi:nodetypes="cc" />
      <path
         style="fill:none;stroke:#9e45e3;stroke-width:14.1653px;stroke-linecap:round;stroke-linejoin:round;stroke-opacity:1"
         d="M 28.551181,-9.4216268 C -1.9473174,-49.075525 -58.827888,-34.091347 -58.827888,-34.091347 c 0,0 -1.364156,61.617374 47.129271,77.604933"
         id="path9-2-1-742" />
      <path
         style="fill:none;stroke:#9e45e3;stroke-width:14.1653px;stroke-linecap:butt;stroke-linejoin:miter;stroke-opacity:1"
         d="M -30.914117,28.902896 9.3356808,-24.032318"
         id="path10-0-0-29" />
      <path
         style="fill:none;stroke:#9e45e3;stroke-width:14.1653px;stroke-linecap:round;stroke-linejoin:round;stroke-opacity:1"
         d="m -35.196277,146.67359 17.69581,-64.101792"
         id="path8-6-0-16"
         sodipodi:nodetypes="cc" />
      <path
         style="fill:none;stroke:#9e45e3;stroke-width:14.1653px;stroke-linecap:round;stroke-linejoin:round;stroke-opacity:1"
         d="m -17.500467,82.571798 c -43.050414,-25.480423 -90.289223,9.568409 -90.289223,9.568409 0,0 21.631538,57.711663 72.593413,54.533383"
         id="path9-2-1-45" />
      <path
         style="fill:none;stroke:#9e45e3;stroke-width:14.1653px;stroke-linecap:butt;stroke-linejoin:miter;stroke-opacity:1"
         d="M -58.465253,140.25001 -40.769444,76.148213"
         id="path10-0-0-37" />
      <path
         style="fill:none;stroke:#9e45e3;stroke-width:14.1653px;stroke-linecap:round;stroke-linejoin:round;stroke-opacity:1"
         d="m -13.109695,241.92037 -9.925971,-65.75452"
         id="path8-6-0-00"
         sodipodi:nodetypes="cc" />
      <path
         style="fill:none;stroke:#9e45e3;stroke-width:14.1653px;stroke-linecap:round;stroke-linejoin:round;stroke-opacity:1"
         d="m -23.035666,176.16585 c -49.694026,-5.75272 -78.578094,45.48822 -78.578094,45.48822 0,0 43.247751,43.91119 88.504065,20.2663"
         id="path9-2-1-55" />
      <path
         style="fill:none;stroke:#9e45e3;stroke-width:14.1653px;stroke-linecap:butt;stroke-linejoin:miter;stroke-opacity:1"
         d="m -36.978612,245.5235 -9.925971,-65.75452"
         id="path10-0-0-30" />
      <path
         style="fill:none;stroke:#9e45e3;stroke-width:14.1653px;stroke-linecap:round;stroke-linejoin:round;stroke-opacity:1"
         d="M 49.421155,320.47891 6.6393035,269.56823"
         id="path8-6-0-29"
         sodipodi:nodetypes="cc" />
      <path
         style="fill:none;stroke:#9e45e3;stroke-width:14.1653px;stroke-linecap:round;stroke-linejoin:round;stroke-opacity:1"
         d="m 6.6393035,269.56823 c -45.3926565,21.0261 -43.2910385,79.80967 -43.2910385,79.80967 0,0 59.807188,14.88829 86.07289,-28.89899"
         id="path9-2-1-145" />
      <path
         style="fill:none;stroke:#9e45e3;stroke-width:14.1653px;stroke-linecap:butt;stroke-linejoin:miter;stroke-opacity:1"
         d="M 30.940562,336.00873 -11.841286,285.09805"
         id="path10-0-0-783" />
      <path
         style="fill:none;stroke:#9e45e3;stroke-width:14.1653px;stroke-linecap:round;stroke-linejoin:round;stroke-opacity:1"
         d="M 239.63437,324.28353 175.4433,341.65272"
         id="path8-6-0-09"
         sodipodi:nodetypes="cc" />
      <path
         style="fill:none;stroke:#9e45e3;stroke-width:14.1653px;stroke-linecap:round;stroke-linejoin:round;stroke-opacity:1"
         d="m 175.4433,341.65272 c -0.0408,50.02589 54.16311,72.87013 54.16311,72.87013 0,0 38.68578,-47.97889 10.02796,-90.23932"
         id="path9-2-1-82" />
      <path
         style="fill:none;stroke:#9e45e3;stroke-width:14.1653px;stroke-linecap:butt;stroke-linejoin:miter;stroke-opacity:1"
         d="m 245.93939,347.58492 -64.19108,17.3692"
         id="path10-0-0-35" />
      <path
         style="fill:none;stroke:#9e45e3;stroke-width:14.1653px;stroke-linecap:round;stroke-linejoin:round;stroke-opacity:1"
         d="m 315.68163,266.07049 -45.21046,48.76677"
         id="path8-6-0-25"
         sodipodi:nodetypes="cc" />
      <path
         style="fill:none;stroke:#9e45e3;stroke-width:14.1653px;stroke-linecap:round;stroke-linejoin:round;stroke-opacity:1"
         d="m 270.47117,314.83726 c 26.49455,42.43382 84.56339,33.05647 84.56339,33.05647 0,0 7.35437,-61.19212 -39.35293,-81.82324"
         id="path9-2-1-63" />
      <path
         style="fill:none;stroke:#9e45e3;stroke-width:14.1653px;stroke-linecap:butt;stroke-linejoin:miter;stroke-opacity:1"
         d="m 333.38399,282.48191 -45.21047,48.76676"
         id="path10-0-0-92" />
      <path
         style="fill:none;stroke:#9e45e3;stroke-width:14.1653px;stroke-linecap:round;stroke-linejoin:round;stroke-opacity:1"
         d="m 319.24364,164.60626 v 66.4995"
         id="path8-6-0-091"
         sodipodi:nodetypes="cc" />
      <path
         style="fill:none;stroke:#9e45e3;stroke-width:14.1653px;stroke-linecap:round;stroke-linejoin:round;stroke-opacity:1"
         d="m 319.24364,231.10576 c 48.27865,13.1058 84.48757,-33.24977 84.48757,-33.24977 0,0 -36.20892,-49.8746 -84.48757,-33.24973"
         id="path9-2-1-71" />
      <path
         style="fill:none;stroke:#9e45e3;stroke-width:14.1653px;stroke-linecap:butt;stroke-linejoin:miter;stroke-opacity:1"
         d="m 343.38298,164.60626 v 66.4995"
         id="path10-0-0-19" />
      <path
         style="fill:none;stroke:#9e45e3;stroke-width:14.1653px;stroke-linecap:round;stroke-linejoin:round;stroke-opacity:1"
         d="m -198.82517,188.86655 3.28742,-66.41818"
         id="path8-6-0-05-3"
         sodipodi:nodetypes="cc" />
      <path
         style="fill:none;stroke:#9e45e3;stroke-width:14.1653px;stroke-linecap:round;stroke-linejoin:round;stroke-opacity:1"
         d="m -195.53775,122.44837 c -47.57172,-15.47645 -86.02798,29.03245 -86.02798,29.03245 0,0 33.69908,51.60361 82.74056,37.38573"
         id="path9-2-1-83-6" />
      <path
         style="fill:none;stroke:#9e45e3;stroke-width:14.1653px;stroke-linecap:butt;stroke-linejoin:miter;stroke-opacity:1"
         d="m -222.935,187.67322 3.28742,-66.41818"
         id="path10-0-0-77-6" />
      <path
         style="fill:none;stroke:#9e45e3;stroke-width:14.1653px;stroke-linecap:round;stroke-linejoin:round;stroke-opacity:1"
         d="M 146.52961,347.54562 83.549369,326.1992"
         id="path8-6-0-05"
         sodipodi:nodetypes="cc" />
      <path
         style="fill:none;stroke:#9e45e3;stroke-width:14.1653px;stroke-linecap:round;stroke-linejoin:round;stroke-opacity:1"
         d="m 83.549369,326.1992 c -27.909746,41.51669 4.36951,90.6896 4.36951,90.6896 0,0 58.858281,-18.28288 58.610731,-69.34318"
         id="path9-2-1-83" />
      <path
         style="fill:none;stroke:#9e45e3;stroke-width:14.1653px;stroke-linecap:butt;stroke-linejoin:miter;stroke-opacity:1"
         d="M 138.78086,370.40749 75.800601,349.06106"
         id="path10-0-0-77" />
    </g>
  </g>
</svg>
